<?xml version="1.0" encoding="UTF-8"?>
<svg width="614px" height="238px" viewBox="0 0 614 238" version="1.1" xmlns="http://www.w3.org/2000/svg" xmlns:xlink="http://www.w3.org/1999/xlink">
    <!-- Generator: Sketch 48.2 (47327) - http://www.bohemiancoding.com/sketch -->
    <title>logo</title>
    <desc>Created with Sketch.</desc>
    <defs>
        <linearGradient x1="50%" y1="0%" x2="50%" y2="100%" id="linearGradient-1">
            <stop stop-color="#FFFFFF" stop-opacity="0.5" offset="0%"></stop>
            <stop stop-color="#000000" stop-opacity="0.5" offset="100%"></stop>
        </linearGradient>
        <path d="M0,1 L30.1956022,1 L62.0958003,102.799361 L62.5828348,102.799361 L93.2654615,1 L122,1 L76.950099,135 L45.7804378,135 L0,1 Z M127,1 L155,1 L155,135 L127,135 L127,1 Z M259.6386,56.81573 C259.3131,52.4207 258.3772,48.18852 256.8309,44.11905 C255.2846,40.04958 253.1686,36.50919 250.483,33.4978 C247.7973,30.4864 244.542,28.0447 240.7169,26.1728 C236.8919,24.3008 232.6193,23.3649 227.899,23.3649 C223.016,23.3649 218.5806,24.2194 214.5928,25.9286 C210.605,27.6378 207.1869,29.998 204.3385,33.0094 C201.49,36.02086 199.2113,39.56124 197.5023,43.63071 C195.7932,47.70018 194.8573,52.09515 194.6945,56.81573 L259.6386,56.81573 Z M194.794849,74.6990919 C194.794849,79.5798448 195.485696,84.2978445 196.86729,88.8532212 C198.248884,93.4085878 200.321324,97.3944887 203.084512,100.811014 C205.847799,104.227549 209.342477,106.952593 213.568546,108.986247 C217.794715,111.01989 222.833463,112.036697 228.685089,112.036697 C236.812275,112.036697 243.354548,110.287791 248.312108,106.78991 C253.269668,103.292038 256.967465,98.045301 259.405701,91.049548 L285.737569,91.049548 C284.274688,97.8826079 281.755264,103.983459 278.179398,109.352301 C274.603432,114.721133 270.296075,119.235762 265.257227,122.896336 C260.21838,126.5569 254.570073,129.322622 248.312108,131.193579 C242.054142,133.064536 235.511869,134 228.685089,134 C218.769869,134 209.99268,132.373105 202.353121,129.119267 C194.713562,125.865428 188.252576,121.310124 182.969865,115.453212 C177.687254,109.596301 173.704949,102.600658 171.022949,94.466063 C168.34105,86.3314682 167,77.383548 167,67.6220323 C167,58.6739721 168.422238,50.1734429 171.266813,42.1201947 C174.111288,34.0669365 178.174881,26.9899169 183.457492,20.8889758 C188.740203,14.7880348 195.119901,9.94802021 202.596884,6.36883212 C210.073968,2.78964402 218.526106,1 227.953598,1 C237.868817,1 246.767938,3.07429197 254.651261,7.22297585 C262.534684,11.3715598 269.076957,16.8623268 274.27828,23.6954767 C279.479704,30.5285267 283.258789,38.3782535 285.615737,47.2449672 C287.972585,56.1116808 288.582144,65.2629625 287.444314,74.6990919 L194.794849,74.6990919 Z M285,1 L314.526458,1 L339.325936,102.952292 L363.690846,1 L391.753284,1 L414.240295,102.952292 L440.693592,1 L469,1 L429.201719,135 L400.65134,135 L377.14917,32.74763 L353.736053,135 L324.453565,135 L285,1 Z" id="path-2"></path>
    </defs>
    <g id="Page-1" stroke="none" stroke-width="1" fill="none" fill-rule="evenodd">
        <g id="logo" transform="translate(0.000000, 1.000000)">
            <g id="Page-1" transform="translate(0.000000, 76.000000)">
                <g id="Group-3">
                    <g id="Fill-1-Clipped">
                        <mask id="mask-3" fill="white">
                            <use xlink:href="#path-2"></use>
                        </mask>
                        <g id="path-1">
                            <use fill="#D8D8D8" xlink:href="#path-2"></use>
                            <use fill="url(#linearGradient-1)" xlink:href="#path-2"></use>
                            <use fill="url(#linearGradient-1)" xlink:href="#path-2"></use>
                            <use fill="#464646" xlink:href="#path-2"></use>
                        </g>
                    </g>
                </g>
            </g>
            <path d="M611,64 L614,8 C614.231334,2.60543395 610.738691,-0.88610801 606,0 L487,29 C482.257401,29.6829586 478.768304,33.7388403 479,38 L481,73 C484.851471,64.4477372 489.869874,57.1731199 496,51 C502.696032,45.1431915 510.375955,40.4990084 519,37 C528.232045,33.9874789 537.879948,32.3596209 548,32 C558.808053,32.3596209 568.551955,33.9396008 577,37 C586.408045,40.2596147 594.087968,44.8080414 601,51 C604.793518,54.6896255 608.431321,59.2259808 611,64 Z M607,148 L603,228 C603.175473,233.39702 599.908479,236.888479 596,236 L559,225 L601,158 C603.269331,154.735709 605.205516,151.357638 607,148 Z M523,215 L496,207 C492.231513,206.091771 488.94808,202.0186 489,198 L485,138 C487.175267,141.660005 489.693712,145.054616 493,148 C497.997588,154.135024 504.44224,158.838288 512,162 C519.336767,165.749309 527.54773,167.477039 537,167 C539.959836,167.477039 543.444722,167.189084 547,167 C550.510075,166.037247 553.326626,165.173382 555,164 L556,165 L523,215 Z M584,102 C584,96.8371835 583.043938,92.0090664 581,88 C579.219628,83.0219413 576.590456,79.1020839 573,76 C569.897916,72.409544 565.978059,69.7803713 561,68 C556.990933,65.9560628 552.162817,65 547,65 C541.837183,65 537.009067,65.9560628 533,68 C528.021941,69.7803713 524.102084,72.409544 521,76 C517.409544,79.1020839 514.780372,83.0219413 513,88 C510.956062,92.0090664 510,96.8371835 510,102 C510,107.162817 510.956062,111.990933 513,116 C514.780372,120.978059 517.409544,124.897916 521,128 C524.102084,131.590456 528.021941,134.219628 533,136 C537.009067,138.043938 541.837183,139 547,139 C552.162817,139 556.990933,138.043938 561,136 C565.978059,134.219628 569.897916,131.590456 573,128 C576.590456,124.897916 579.219628,120.978059 581,116 C583.043938,111.990933 584,107.162817 584,102 Z" id="Combined-Shape" fill="#D0011B" fill-rule="nonzero"></path>
            <path d="M177,39 C176.646907,39 181.048123,39.0791591 159,39 C136.498213,39.1394709 133,64.8851753 133,65 C133,64.8851753 134.276238,65.2391422 152,65 C169.404605,64.1690948 176.646907,39 177,39 Z" id="Path-42" fill="#D0011B" fill-rule="nonzero"></path>
        </g>
    </g>
</svg>